<?xml version="1.0" encoding="utf-8"?>
<!-- Generator: Adobe Illustrator 15.1.0, SVG Export Plug-In . SVG Version: 6.00 Build 0)  -->
<!DOCTYPE svg PUBLIC "-//W3C//DTD SVG 1.1//EN" "http://www.w3.org/Graphics/SVG/1.1/DTD/svg11.dtd">
<svg version="1.1" id="Layer_1" xmlns="http://www.w3.org/2000/svg" xmlns:xlink="http://www.w3.org/1999/xlink" x="0px" y="0px"
	 width="1500px" height="1500px" viewBox="0 0 1500 1500" enable-background="new 0 0 1500 1500" xml:space="preserve">
<g>
	<polygon fill="#1EA3FF" points="750,76.048 750,76.048 750,76.048 243.4,256.705 320.669,926.549 750,1164.34 750,1164.34 
		750,1164.34 1179.332,926.549 1256.6,256.705 	"/>
	<polygon fill="#347EFF" points="750,76.048 750,196.849 750,196.305 750,747.525 750,747.525 750,1164.34 750,1164.34 
		1179.332,926.549 1256.6,256.705 	"/>
</g>
<title>ionic-logo-landscape</title>
<g>
	<path fill="#FFFFFF" d="M625.992,620.305c0,68.486,55.52,124.007,124.006,124.007V496.298
		C681.512,496.298,625.992,551.818,625.992,620.305z"/>
	<path fill="#E3EEFF" d="M874.005,620.305c-0.081-68.453-55.554-123.925-124.007-124.007v248.014
		C818.486,744.312,874.005,688.791,874.005,620.305z"/>
	<circle fill="#E3EEFF" cx="928.049" cy="450.804" r="56.488"/>
	<path fill="#FFFFFF" d="M544.448,706.011c-47.167-113.431,6.551-243.622,119.982-290.789
		c27.419-11.402,56.512-17.065,85.568-17.043v-50.095c-0.012,0-0.024,0-0.037,0c-150.283,0.021-272.094,121.868-272.072,272.149
		c0.022,150.27,121.845,272.07,272.109,272.071v-49.217C662.796,843.116,580.017,791.548,544.448,706.011z"/>
	<path fill="#E3EEFF" d="M845.242,419.674l3.48,1.666l1.518-3.702c5.531-12.868,14.151-24.17,25.098-32.908l4.441-3.702
		l-5.071-2.628c-38.516-20.018-81.303-30.419-124.71-30.316v50.095C782.596,398.203,815.148,405.384,845.242,419.674z"/>
	<path fill="#E3EEFF" d="M1022.111,620.155c-0.006-38.957-8.376-77.457-24.543-112.899l0.036,0.333l-2.368-5.182l-3.702,4.294
		c-9.262,10.508-20.972,18.569-34.094,23.468l-3.701,1.333l1.481,3.702c47.167,113.431-6.551,243.623-119.982,290.789
		c-27.895,11.6-56.803,17.085-85.24,17.095v49.217c0.014,0,0.028,0.001,0.042,0.001
		C900.322,892.283,1022.133,770.438,1022.111,620.155z"/>
</g>
<g>
	<path fill="#347EFF" d="M317.301,1403.687v-41.883c7.543,5.284,13.77,9.197,18.678,11.744c4.904,2.547,9.808,3.82,14.716,3.82
		c17.355,0,26.036-8.772,26.036-26.318v-129.329h45.845v131.31c0,21.698-5.85,37.312-17.546,46.836
		c-11.7,9.529-26.133,14.291-43.298,14.291C347.015,1414.157,332.202,1410.664,317.301,1403.687z"/>
	<path fill="#347EFF" d="M573.693,1369.728h-70.466l-13.584,40.751h-43.298l71.315-188.758h50.09l66.787,188.758H587.56
		L573.693,1369.728z M562.374,1336.051l-24.055-71.314l-23.771,71.314H562.374z"/>
	<path fill="#347EFF" d="M704.153,1410.479h-45.845v-188.758h84.898c22.64,0,40.137,5.094,52.495,15.282
		c12.355,10.188,18.537,25.566,18.537,46.128c0,20.941-6.275,37.072-18.82,48.392c-12.549,11.32-29.953,16.98-52.212,16.98h-39.053
		V1410.479z M737.546,1313.128c9.242,0,16.082-2.405,20.517-7.216c4.432-4.812,6.65-11.364,6.65-19.668
		c0-19.244-9.055-28.866-27.167-28.866h-33.393v55.75H737.546z"/>
	<path fill="#347EFF" d="M935.922,1369.728h-70.466l-13.583,40.751h-43.299l71.315-188.758h50.09l66.787,188.758h-46.978
		L935.922,1369.728z M924.603,1336.051l-24.055-71.314l-23.771,71.314H924.603z"/>
	<path fill="#347EFF" d="M1185.239,1221.721v188.758h-34.525l-88.012-114.896v114.896h-42.166v-188.758h39.053l83.484,112.35
		v-112.35H1185.239z"/>
</g>
</svg>
